# xmcd
# 
# Track frame offsets:
#     150
#     16892
#     35235
#     55382
#     73475
#     86480
#     100300
#     114322
#     126557
#     142240
#     158560
#     179920
#     195995
#     208045
# 
# Disc length: 2944
# 
# Revision: 8
# Processed by: cddbd v1.5.2PL0 Copyright (c) Steve Scherf et al.
# Submitted via: fre:ac v1.1rc2
# 
DISCID=d80b7e0e
DTITLE=Nanci Griffith - Clock Without Hands
DYEAR=2001
DGENRE=Folk
TTITLE0=Clock Without Hands
TTITLE1=Traveling Through This Part Of You
TTITLE2=Where Would I Be
TTITLE3=Midnight In Missoula
TTITLE4=Lost Him In The Sun
TTITLE5=The Ghost Inside Of Me
TTITLE6=Truly Something Fine
TTITLE7=Cotton
TTITLE8=Pearl's Eye View (The Life Of Dickey Chapelle)
TTITLE9=Roses On The 4th Of July
TTITLE10=Shaking Out The Snow
TTITLE11=Armstrong
TTITLE12=Last Song For Mother
TTITLE13=In The Wee Small Hours
EXTD=
EXTT0=
EXTT1=
EXTT2=
EXTT3=
EXTT4=
EXTT5=
EXTT6=
EXTT7=
EXTT8=
EXTT9=
EXTT10=
EXTT11=
EXTT12=
EXTT13=
PLAYORDER=
